<svg width="671" height="269" viewBox="0 0 671 269" fill="none" xmlns="http://www.w3.org/2000/svg">
<path d="M46.5222 201.865L31.0891 180.878L74.7938 181.466L74.0778 207.591L46.5222 201.865Z" fill="#662F14"/>
<path d="M671 240.155C654.763 215.896 640.856 189.493 647.739 162.019L640.582 138.7L596.564 139.058L636.556 137.806L649.976 137.09C654.27 131.811 660.08 118.56 663.962 111.918L662.769 93.251C608.389 93.8721 568.03 94.6746 523.022 56.0326C495.862 97.3351 476.295 135.746 450.196 170.371C517.376 258.858 571.967 273.874 659.19 267.711L671 240.155Z" fill="#51210E"/>
<path d="M0 240.871L8.23083 265.205C90.6593 265.325 173.565 254.827 199.102 156.017C175.099 121.392 9.98775 228.525 0 240.871Z" fill="#51210E"/>
<path opacity="0.36" d="M193.097 175.021C186.584 168.003 178.565 164.789 174.401 169.893C167.005 178.959 98.6992 234.334 98.6992 234.334L99.3519 256.449C140.375 245.857 174.854 223.054 193.097 175.021Z" fill="#D39359"/>
<path opacity="0.36" d="M570.018 236.531C570.018 236.531 517.888 166.398 472.452 137.975C465.37 149.103 458.082 159.909 450.196 170.371C487.729 219.809 521.333 246.313 558.894 259.002C565.658 246.57 570.018 236.531 570.018 236.531Z" fill="#D39359"/>
<path d="M654.265 215.712C638.866 192.703 634.322 164.621 640.85 138.565L595.491 136.017L642.421 133.008C644.559 126.227 647.467 119.621 651.149 113.321L663.055 92.9509C611.481 93.5405 561.848 83.5788 519.162 46.9294C493.401 86.1019 468.071 122.58 443.317 155.42C507.033 239.344 588.048 246.223 670.774 240.377L654.265 215.712Z" fill="#D39359"/>
<path d="M136.38 46.9306C96.0063 84.6204 48.8785 94.0852 0 92.8759L16.6183 117.95C29.2143 136.955 33.9698 159.357 31.0894 180.878L67.2792 184.688L30.0306 187.138C27.1468 201.214 20.9395 214.724 11.4664 226.434L0 240.607C75.0181 246.027 148.318 238.221 206.131 155.422C183.366 122.581 160.071 86.1025 136.38 46.9306Z" fill="#D39359"/>
<path d="M102.349 188.98C102.349 166.583 71.9091 148.911 28.6215 144.333C29.9071 149.013 30.8148 153.768 31.3438 158.552C55.2619 164.301 71.5724 175.77 71.5724 188.98C71.5724 205.087 47.3238 218.605 14.6046 222.322C13.6014 223.715 12.555 225.087 11.4652 226.434L4.7117 234.782C5.16794 234.785 5.62486 234.787 6.08247 234.787C60.9642 234.787 102.349 215.095 102.349 188.98Z" fill="#CE7F42"/>
<path d="M31.8922 169.958C31.8407 173.61 31.5734 177.257 31.089 180.879L56.6362 183.567C52.662 176.525 43.2961 171.244 31.8922 169.958Z" fill="#CE7F42"/>
<path d="M58.6892 191.128C58.6892 189.119 58.2749 187.175 57.5012 185.332L30.0294 187.139C28.2484 195.832 25.1997 204.308 20.8978 212.278C22.711 212.49 24.5765 212.6 26.4805 212.6C44.2696 212.6 58.6892 202.986 58.6892 191.128Z" fill="#CE7F42"/>
<path d="M142.681 135.052C155.456 134.738 170.939 132.291 187.638 128.136C182.907 121.004 178.154 113.73 173.383 106.321C163.47 108.315 157.952 109.142 157.657 109.214C118.463 115.511 73.9022 106.134 31.8033 91.9508C21.5064 92.877 11.0768 93.1313 0.566193 92.8894C44.1918 118.519 97.5118 137.355 142.681 135.052Z" fill="#CE7F42"/>
<path d="M557.197 184.685C528.419 184.685 503.354 190.1 486.017 199.015C489.1 201.387 492.208 203.638 495.343 205.773C508.861 199.806 527.261 196.137 547.535 196.137C589.04 196.137 622.687 211.518 622.687 230.492C622.687 234.441 621.229 238.235 618.545 241.767C629.252 242.089 640.046 241.953 650.89 241.507C652.576 238 653.464 234.315 653.464 230.492C653.464 204.377 612.078 184.685 557.197 184.685Z" fill="#CE7F42"/>
<path d="M577.596 211.167C561.034 211.167 547.39 219.502 545.591 230.223C565.529 236.63 586.129 239.927 607.115 241.242C608.845 238.608 609.804 235.698 609.804 232.638C609.804 220.78 595.385 211.167 577.596 211.167Z" fill="#CE7F42"/>
<path d="M638.085 167.014C586.118 155.951 524.328 132.027 475.677 110.943C474.517 112.59 473.357 114.231 472.198 115.865C521.674 137.413 585.066 161.999 638.586 173.042C638.357 171.038 638.19 169.028 638.085 167.014Z" fill="#CE7F42"/>
<path d="M644.517 127.047C602.993 111.324 554.159 83.9894 511.917 57.8904C510.806 59.5642 509.695 61.2332 508.583 62.8966C552.385 89.9452 601.102 116.855 642.597 132.454C643.18 130.638 643.82 128.835 644.517 127.047Z" fill="#CE7F42"/>
<path opacity="0.36" d="M206.131 155.421C183.367 122.581 160.071 86.103 136.38 46.9305C113.761 68.0459 89.022 80.3011 63.0433 86.7853C66.7364 98.991 70.7945 115.146 68.2337 120.269C63.9393 128.857 56.7817 135.537 67.2793 175.141C74.3956 201.99 89.626 223.356 98.6985 234.333C137.679 223.923 174.258 201.069 206.131 155.421Z" fill="#D39359"/>
<path opacity="0.36" d="M591.197 140.309C586.186 133.867 574.019 136.014 574.734 128.141C575.45 120.269 594.774 126.71 594.774 126.71C594.774 126.71 599.634 103.632 599.91 87.0141C571.295 80.5911 544.048 68.2967 519.162 46.9305C493.401 86.103 468.071 122.581 443.317 155.421C480.656 204.602 523.935 227.324 570.018 236.532C578.397 206.618 594.974 145.167 591.197 140.309Z" fill="#D39359"/>
<path d="M586.902 63.635C549.889 48.2816 176.494 10.5891 83.8305 36.3775C77.5077 38.1372 76.8797 44.3885 77.7613 47.8329C79.6219 55.1458 81.2105 55.2049 78.9101 58.3566C77.1353 60.7869 76.0112 65.8646 76.71 68.5361C80.7337 83.9444 84.7573 99.3534 88.781 114.762C89.0799 115.906 89.1225 118.234 89.0985 118.256C88.8381 122.318 86.2065 119.783 82.3992 121.52C78.2347 123.417 76.1782 134.71 77.4184 139.092C83.5047 160.721 87.9139 189.061 94.0003 210.69C96.0225 217.801 104.824 216.993 111.178 214.746C147.28 201.97 190.951 188.975 235.113 183.052C237.367 182.75 237.472 185.644 240.763 185.205C285.078 179.302 329.752 178.155 374.206 181.763C374.899 181.82 375.52 181.234 375.561 180.444C375.602 179.638 376.214 179.031 376.921 179.091C434.172 183.972 487.266 198.969 542.527 219.577C543.202 219.829 547.7 217.166 547.915 216.408C554.744 192.137 561.574 167.866 568.403 143.595C569.277 140.505 567.806 130.274 564.838 128.937C557.525 125.621 546.131 123.461 546.221 123.103C547.427 118.245 552.018 116.624 556.842 118.301C560.532 119.583 564.525 119.877 568.203 121.221C571.451 122.407 574.826 120.757 575.747 117.501C580.136 101.904 584.525 86.3073 588.913 70.7101C589.126 69.9515 589.922 64.8875 586.902 63.635Z" fill="#662F14"/>
<path d="M91.7812 111.246C91.5236 115.066 89.1764 118.738 85.4049 120.372C81.2795 122.155 78.9826 126.72 80.2104 130.841C86.2398 151.183 92.2697 171.524 98.2991 191.866C100.303 198.554 107.005 202.15 113.299 200.036C149.064 188.022 192.68 177.756 236.429 172.184C238.661 171.9 238.766 174.623 242.026 174.21C285.927 168.658 330.182 167.58 374.221 170.973C374.907 171.026 375.522 170.476 375.562 169.732C375.603 168.974 376.209 168.404 376.909 168.46C433.625 173.05 489.962 185.036 544.706 204.416C545.376 204.654 546.091 204.268 546.303 203.554C553.068 180.728 559.834 157.903 566.599 135.076C567.465 132.17 565.868 128.931 562.926 127.675C555.683 124.555 546.08 120.088 544.755 116.876C536.379 114.414 527.83 112.466 519.008 111.474C445.827 103.25 376.66 92.0127 305.39 88.1834C234.586 84.4243 161.679 88.0728 91.7812 111.246Z" fill="#DFA164"/>
<path d="M544.625 115.805C545.818 111.235 550.672 108.751 555.451 110.329C559.107 111.535 562.757 112.77 566.401 114.034C569.619 115.15 572.962 113.598 573.874 110.535C578.221 95.8669 582.569 81.1986 586.917 66.5303C587.128 65.8157 586.657 65.0084 585.861 64.7267C519.12 41.0992 450.385 26.7353 381.217 21.6349C377.73 21.3759 374.841 18.8192 374.641 15.7093C374.192 8.23777 367.808 1.66287 359.406 1.28908C267.427 -2.81636 174.995 9.09802 85.636 37.0329C81.951 38.1845 79.6781 41.7746 80.5507 45.0143C82.3942 51.8922 83.6702 53.9961 81.3917 56.9603C79.6334 59.2463 78.8171 61.9721 79.5098 64.4855C83.4956 78.9765 87.4822 93.4676 91.4681 107.959C91.7642 109.035 91.8556 110.146 91.7828 111.245C230.831 65.1472 380.233 95.8765 519.009 111.474C527.832 112.465 536.38 114.413 544.757 116.875C544.603 116.503 544.535 116.142 544.625 115.805Z" fill="#DFA164"/>
<path opacity="0.56" d="M522.838 92.9179C521.287 92.5132 505.048 89.8734 504.797 89.8912C474.242 83.8942 415.199 70.8907 383.885 67.324C254.258 51.7501 197.325 59.5054 88.161 95.9412C88.9133 98.6765 89.6657 101.413 90.4188 104.149C106.819 99.6804 123.049 96.3473 127.25 95.5262C259.624 58.9674 411.327 61.5269 549.239 110.508C553.046 108.914 555.482 110.245 566.401 114.033C569.619 115.149 572.962 113.597 573.874 110.535C574.109 109.742 574.343 108.951 574.577 108.159C540.902 95.8484 526.252 93.8984 522.838 92.9179Z" fill="#CE7F42"/>
<path d="M374.543 14.7231C374.424 13.8243 374.22 12.9421 373.938 12.0866C321.149 3.66755 305.869 -4.58801 214.822 8.0499C166.524 16.8407 126.82 30.5072 81.0977 47.0623C81.266 47.689 81.4337 48.3156 81.6013 48.9422C251.84 -13.4695 303.709 3.25668 374.543 14.7231Z" fill="#CE7F42"/>
<path d="M154.031 57.6289C142.839 55.9071 114.917 59.5693 80.7415 68.9662C82.1817 74.2026 83.6218 79.4383 85.062 84.6747C134.045 68.378 168.636 60.2523 154.031 57.6289Z" fill="#CE7F42"/>
<path d="M179.986 37.9893C197.095 33.7189 265.105 21.6094 345.43 25.9189C425.784 28.7031 518.453 47.9063 585.581 71.0369C586.025 69.5349 586.471 68.0322 586.916 66.5302C587.127 65.8156 586.656 65.0083 585.86 64.7266C519.12 41.0991 450.384 26.7352 381.216 21.6348C378.169 21.4088 375.581 19.4285 374.84 16.8574C276.785 10.152 177.869 21.9646 82.5131 52.3511C83.4407 56.3666 79.3215 57.7154 79.2638 62.5574C123.359 49.7731 163.343 42.4472 179.986 37.9893Z" fill="#CE7F42"/>
<path d="M387.245 42.354C397.752 49.1811 498.685 63.7381 578.242 95.8032C579.362 92.0213 580.483 88.2395 581.605 84.4577C481.657 42.1816 374.648 33.9864 387.245 42.354Z" fill="#CE7F42"/>
<path d="M90.4184 104.15C91.4051 107.736 91.7755 108.717 91.803 110.353C120.496 102.851 133.736 99.1199 156.671 95.1347C286.799 65.5067 426.303 73.6393 545.468 113.776C546.342 112.294 547.669 111.167 549.239 110.51C411.325 61.529 259.623 58.9682 127.249 95.5277C123.048 96.3501 106.818 99.6819 90.4184 104.15Z" fill="#CE7F42"/>
<path d="M504.514 84.5785C476.189 79.0741 419.693 64.1529 361.24 57.8838C302.996 50.639 242.798 52.0468 211.843 56.6807C203.705 57.8357 149.837 66.5798 86.5229 89.9881C87.0691 91.9724 87.6147 93.9575 88.161 95.9418C175.68 66.7303 207.62 64.4381 238.351 61.1675C356.086 55.2735 431.97 75.5994 504.796 89.8919C505.047 89.8747 521.285 92.5153 522.837 92.9186C526.253 93.8984 540.903 95.8491 574.577 108.16C574.95 106.903 575.323 105.646 575.694 104.389C548.063 93.302 526.685 88.2868 504.514 84.5785Z" fill="#CE7F42"/>
<path d="M476.7 106.363C380.94 77.271 268.551 73.4329 183.209 91.231C282.436 79.4093 378.679 94.2542 476.7 106.363Z" fill="#CE7F42"/>
<path opacity="0.15" d="M362.428 126.792C263.541 129.654 228.583 106.088 88.1599 157.661C90.9103 166.941 93.6608 176.221 96.4113 185.5C122.244 181.413 174.704 151.46 199.52 147.053C209.408 145.202 248.274 141.151 289.187 142.011C330.169 142.214 373.2 147.33 393.013 148.661C424.106 148.496 511.374 179.403 547.216 200.47C549.669 192.192 552.124 183.915 554.577 175.637C515.026 154.467 466.826 136.844 426.609 129.887C386.641 123.105 374.463 127.03 362.428 126.792Z" fill="#CE7F42"/>
<path d="M156.671 95.1335C139.527 98.1135 122.46 102.003 105.591 106.946C112.471 105.341 119.874 103.751 127.932 102.197C134.514 100.443 144.286 97.919 156.671 95.1335Z" fill="#CE7F42"/>
<path d="M81.8886 123.041C80.1199 125.221 79.4047 128.126 80.2107 130.841C80.8717 133.072 81.5334 135.303 82.1944 137.532C141.131 106.952 233.078 91.9121 300.856 92.1945C394.138 90.4966 495.317 114.202 563.938 144.058C564.405 142.48 564.871 140.904 565.34 139.326C538.357 126.993 508.41 115.602 476.701 106.364C378.68 94.2551 282.436 79.4102 183.21 91.2318C141.638 99.3445 106.503 111.342 81.8886 123.041Z" fill="#CE7F42"/>
<path d="M383.136 122.97C382.511 122.781 373.278 123.836 340.689 123.946C263.652 122.916 211.869 106.533 87.129 154.183C87.4726 155.343 87.8161 156.502 88.1597 157.662C228.554 106.098 263.313 129.662 362.428 126.793C374.463 127.031 386.643 123.105 426.609 129.888C466.826 136.845 515.028 154.467 554.576 175.638C554.758 175.025 554.94 174.412 555.121 173.799C504.693 145.625 430.852 121.796 383.136 122.97Z" fill="#CE7F42"/>
<path d="M383.134 122.97C383.134 122.97 383.135 122.97 383.137 122.97C383.137 122.97 383.137 122.97 383.134 122.97Z" fill="#CE7F42"/>
<path d="M410.887 117.716C400.429 109.66 336.693 104.455 336.661 105.276C336.728 105.24 306.665 102.58 277.656 103.808C248.667 104.569 220.733 109.22 225.507 113.027C230.215 116.706 279.371 113.078 325.833 114.862C372.329 115.485 416.131 121.52 410.887 117.716Z" fill="#CE7F42"/>
<path opacity="0.56" d="M393.014 148.66C373.2 147.33 330.17 142.215 289.188 142.01C248.274 141.15 209.409 145.202 199.521 147.053C174.548 151.488 122.322 181.397 96.4122 185.5C97.0416 187.622 97.6702 189.744 98.2996 191.867C100.303 198.554 107.005 202.151 113.3 200.037C149.064 188.022 192.681 177.756 236.43 172.185C238.662 171.901 238.766 174.623 242.027 174.21C285.927 168.658 330.183 167.58 374.222 170.974C374.907 171.027 375.522 170.476 375.562 169.733C375.604 168.974 376.21 168.404 376.909 168.461C433.625 173.051 489.962 185.036 544.707 204.417C545.376 204.654 546.092 204.269 546.303 203.555C546.608 202.526 546.913 201.499 547.217 200.47C511.374 179.403 424.107 148.495 393.014 148.66Z" fill="#CE7F42"/>
<path d="M97.1744 109.506C226.522 71.0447 361.584 95.3655 492.426 111.679C491.647 111.589 507.27 111.099 521.067 113.126C525.716 113.825 535.985 116.166 546.032 118.553C545.414 117.968 544.973 117.406 544.756 116.876C536.379 114.415 527.83 112.467 519.008 111.475C381.077 95.9571 234.701 65.9546 97.1744 109.506Z" fill="#662F14"/>
<path d="M83.4275 36.5703C80.15 38.4103 78.4089 41.9812 79.2197 45.2545C80.7279 51.1836 82.1316 53.7176 80.4572 55.8614C75.3458 63.1358 77.8049 61.4599 88.0682 100.349C88.7168 102.806 90.4909 108.758 90.528 111.25C90.6222 117.539 84.4458 119.467 84.3028 119.59C80.1019 121.862 77.7926 126.586 79.2623 131.318C79.3076 131.466 81.7338 139.316 81.6878 139.165C81.7379 139.325 91.3285 170.522 98.157 191.391C86.6404 148.115 80.8584 131.016 80.9649 128.354C81.035 126.184 82.2319 123.797 84.3661 122.311C85.036 121.808 85.9588 121.448 86.6362 121.117C92.8291 117.941 93.0463 111.396 93.0326 111.246C91.435 94.0562 80.1033 65.0686 80.8048 61.4166C81.7448 56.7649 85.3308 57.4802 83.4069 50.1165C82.7425 46.3381 80.2985 43.5492 82.9191 40.3947C83.6742 39.4629 84.7137 38.7477 85.8172 38.3664C90.238 36.6795 131.637 23.7262 187.275 12.3684C139.233 19.4029 86.7339 34.6787 83.4275 36.5703Z" fill="#FCC495"/>
<path d="M586.479 63.4377C586.33 63.3855 583.879 62.5307 584.029 62.583C566.833 56.9357 555.287 53.0096 535.456 48.7433C535.59 48.7901 577.289 63.314 584.482 65.8234C585.075 66.0302 585.392 66.6706 585.216 67.2725C577.728 92.8272 573.672 109.836 573.564 110.253C573.151 112.342 571.302 114.049 569.058 114.371C574.192 114.25 574.441 109.459 576.506 104.109C582.943 85.0334 587.75 68.6975 587.708 68.8411C587.751 68.6968 588.34 66.7008 588.34 66.7008C588.611 65.3039 587.77 63.9551 586.479 63.4377ZM585.541 66.16C585.543 66.1552 585.544 66.1497 585.545 66.1456L585.551 66.1284L585.541 66.16Z" fill="#FCC495"/>
<mask id="path-39-outside-1_2024_14989" maskUnits="userSpaceOnUse" x="132.404" y="35.9382" width="385.445" height="125.73" fill="black">
<rect fill="white" x="132.404" y="35.9382" width="385.445" height="125.73"/>
<path d="M166.877 101.538L172.231 100.246C175.265 99.5136 177.474 98.2203 178.858 96.3659C180.302 94.4971 180.704 92.2144 180.065 89.5178C179.425 86.8212 178.109 84.9847 176.117 84.0084C174.125 83.032 171.552 82.9242 168.399 83.685C167.328 83.9434 166.354 84.2102 165.476 84.4854C164.657 84.7463 163.846 85.0372 163.041 85.358L166.877 101.538ZM175.681 110.817L155.961 115.575L148.331 83.3958C148.061 82.2572 148.175 81.2794 148.673 80.4623C149.171 79.6453 149.913 78.9278 150.899 78.3099C152.691 77.1171 154.92 76.0407 157.586 75.0808C160.251 74.1209 162.684 73.3754 164.885 72.8443C172.916 70.9065 179.396 71.1802 184.325 73.6653C189.299 76.0762 192.489 80.2479 193.896 86.1804C194.805 90.0156 194.679 93.5938 193.516 96.9152C192.414 100.222 190.359 103.094 187.352 105.53C184.33 107.906 180.44 109.668 175.681 110.817ZM154.533 109.553L168.096 106.28L173.659 129.74C173.166 130.049 172.339 130.407 171.177 130.814C170.03 131.281 168.832 131.665 167.583 131.967C164.906 132.613 162.889 132.592 161.531 131.906C160.233 131.206 159.3 129.657 158.731 127.26L154.533 109.553Z"/>
<path d="M226.26 74.5974L225.714 74.6741C225.378 76.7122 224.95 78.9809 224.43 81.4802C223.971 83.9711 223.498 86.5882 223.012 89.3317C222.517 92.0141 222.053 94.6923 221.619 97.3662L221.119 105.835C220.916 107.046 220.72 108.317 220.534 109.65C220.408 110.974 220.247 112.272 220.052 113.544C219.857 114.815 219.683 116.022 219.532 117.163C219.381 118.304 219.221 119.384 219.053 120.403C218.411 120.68 217.679 120.97 216.857 121.272C216.042 121.635 215.059 121.898 213.908 122.06C211.364 122.418 209.362 122.233 207.903 121.505C206.444 120.777 205.593 119.528 205.349 117.758C205.248 117.026 205.234 116.25 205.306 115.431C205.439 114.604 205.585 113.65 205.745 112.57C206.012 110.479 206.42 107.84 206.969 104.652C207.578 101.456 208.214 98.0073 208.877 94.3058C209.592 90.5348 210.315 86.8248 211.047 83.1758C211.839 79.5183 212.548 76.1525 213.174 73.0783C213.861 69.9956 214.424 67.5836 214.863 65.8421C215.635 65.1736 216.9 64.4979 218.659 63.8151C220.469 63.0628 222.283 62.5588 224.101 62.3032C226.706 61.9369 229.093 62.0055 231.262 62.5092C233.423 62.9518 234.889 63.9587 235.662 65.5298C237.259 68.6024 239.018 72.1809 240.94 76.2654C242.914 80.2803 244.918 84.5089 246.951 88.951C248.983 93.3932 250.939 97.7218 252.817 101.937C254.747 106.082 256.437 109.826 257.886 113.169C257.321 113.995 256.436 114.741 255.231 115.408C254.034 116.136 252.558 116.624 250.801 116.871C248.317 117.221 246.497 117.01 245.341 116.239C244.185 115.469 243.208 114.206 242.411 112.452L238.089 102.609L235.471 95.0448C234.365 92.4008 233.242 89.8525 232.101 87.4001C230.96 84.9477 229.901 82.6394 228.923 80.4751C227.937 78.2498 227.049 76.2905 226.26 74.5974ZM215.258 108.339L219.13 96.7831L240.393 93.7926L243.7 104.339L215.258 108.339Z"/>
<path d="M303.284 99.4217C302.622 99.9896 301.714 100.47 300.559 100.863C299.465 101.254 298.185 101.465 296.717 101.494C294.822 101.532 293.227 101.317 291.933 100.85C290.64 100.383 289.799 99.5677 289.409 98.4045C287.219 92.5933 285.353 87.7617 283.812 83.9097C282.332 80.0565 281.167 76.7209 280.318 73.9028L279.86 73.912C279.75 77.7969 279.664 81.3424 279.603 84.5484C279.542 87.7544 279.51 90.8982 279.507 93.9798C279.503 96.9998 279.47 100.082 279.408 103.226C279.345 106.371 279.227 109.825 279.054 113.587C278.385 113.786 277.472 114.02 276.315 114.289C275.219 114.558 274.12 114.703 273.019 114.725C270.696 114.771 268.854 114.407 267.493 113.633C266.194 112.858 265.525 111.485 265.488 109.513C265.462 108.158 265.485 106.155 265.557 103.503C265.689 100.789 265.814 97.7045 265.932 94.2508C266.11 90.7343 266.253 87.0336 266.363 83.1487C266.534 79.2625 266.706 75.438 266.879 71.6751C267.112 67.8493 267.321 64.3322 267.504 61.1237C267.979 60.3747 268.944 59.6158 270.397 58.8473C271.85 58.0171 273.86 57.5763 276.428 57.5251C279.18 57.4701 281.39 57.8882 283.059 58.7794C284.787 59.6077 286.038 61.0311 286.81 63.0495C287.77 65.249 288.797 67.817 289.893 70.7534C290.988 73.6282 292.053 76.5652 293.089 79.5644C294.184 82.5008 295.183 85.1618 296.085 87.5474L296.544 87.5383C298.153 82.0827 299.795 76.7496 301.47 71.5392C303.206 66.3276 304.683 61.9839 305.902 58.5083C306.748 57.9983 307.812 57.6073 309.091 57.3352C310.43 57.0004 311.834 56.8183 313.302 56.789C315.931 56.7365 318.048 57.0948 319.653 57.864C321.319 58.5703 322.319 59.6905 322.654 61.2246C322.92 62.3902 323.2 64.2336 323.493 66.7546C323.847 69.2744 324.208 72.1946 324.577 75.5153C324.945 78.7744 325.316 82.2183 325.691 85.8471C326.065 89.4142 326.407 92.9203 326.717 96.3655C327.087 99.7478 327.389 102.792 327.624 105.5C327.859 108.207 328.023 110.36 328.114 111.961C327.208 112.534 326.237 112.954 325.202 113.221C324.229 113.548 322.979 113.728 321.45 113.758C319.493 113.797 317.805 113.461 316.384 112.75C315.025 112.037 314.264 110.635 314.102 108.543C313.705 103.744 313.374 99.1895 313.108 94.8806C312.841 90.5102 312.613 86.5396 312.423 82.9688C312.293 79.3352 312.142 76.2258 311.97 73.6407L311.512 73.6499C310.767 76.3149 309.7 79.6951 308.309 83.7905C306.979 87.823 305.304 93.0334 303.284 99.4217Z"/>
<path d="M368.184 72.1801L367.636 72.1252C366.832 74.0263 365.886 76.1298 364.796 78.4358C363.767 80.7478 362.695 83.1794 361.581 85.7306C360.473 88.2205 359.396 90.7135 358.349 93.2095L355.883 101.323C355.402 102.451 354.915 103.641 354.421 104.892C353.989 106.149 353.529 107.372 353.042 108.562C352.555 109.752 352.105 110.883 351.691 111.956C351.277 113.03 350.869 114.041 350.467 114.992C349.779 115.109 349 115.217 348.13 115.315C347.254 115.475 346.237 115.497 345.081 115.381C342.525 115.125 340.624 114.47 339.376 113.416C338.129 112.362 337.593 110.946 337.77 109.168C337.843 108.432 338.011 107.674 338.273 106.896C338.595 106.123 338.961 105.231 339.369 104.219C340.117 102.25 341.131 99.7818 342.41 96.8135C343.749 93.8514 345.173 90.6501 346.683 87.2097C348.26 83.714 349.831 80.2796 351.395 76.9066C353.021 73.5397 354.497 70.4364 355.824 67.597C357.212 64.7636 358.323 62.5526 359.157 60.9642C360.064 60.4978 361.452 60.1414 363.32 59.8952C365.255 59.5938 367.136 59.5346 368.961 59.7177C371.578 59.98 373.882 60.6134 375.872 61.618C377.868 62.5612 379.057 63.888 379.44 65.5985C380.273 68.9642 381.146 72.8602 382.058 77.2866C383.037 81.6578 383.995 86.2436 384.931 91.044C385.868 95.8444 386.756 100.516 387.595 105.059C388.501 109.547 389.267 113.587 389.893 117.18C389.151 117.848 388.116 118.364 386.789 118.726C385.456 119.15 383.908 119.273 382.143 119.096C379.648 118.846 377.928 118.209 376.985 117.186C376.042 116.163 375.388 114.704 375.023 112.809L373.126 102.215L372.352 94.2417C371.896 91.4092 371.4 88.6657 370.865 86.0111C370.33 83.3565 369.841 80.8612 369.397 78.5254C368.959 76.1283 368.554 74.0132 368.184 72.1801ZM349.602 102.365L356.067 92.0518L377.427 94.1932L378.174 105.229L349.602 102.365Z"/>
<path d="M433.139 93.4505L431.149 103.231L411.108 99.1033L413.098 89.3231L433.139 93.4505ZM424.409 101.843L427.017 94.5484C431.99 95.5725 436.001 97.0276 439.05 98.9137C442.1 100.8 444.212 102.996 445.388 105.503C446.623 108.021 446.927 110.82 446.301 113.899C445.109 119.755 442.067 123.658 437.176 125.607C432.285 127.556 425.855 127.71 417.886 126.069C416.448 125.773 414.813 125.373 412.98 124.87C411.207 124.379 409.393 123.785 407.537 123.088C405.741 122.404 404.12 121.63 402.673 120.766C399.791 118.977 398.644 116.634 399.234 113.736L408.044 70.4495C408.277 69.3024 408.791 68.4647 409.585 67.9364C410.379 67.408 411.353 67.0738 412.505 66.9336C414.689 66.6287 417.25 66.6214 420.188 66.9119C423.185 67.2146 426.211 67.6806 429.267 68.3099C436.696 69.84 442.154 72.3163 445.64 75.739C449.186 79.174 450.424 83.5177 449.355 88.77C448.765 91.6678 447.423 93.9703 445.327 95.6775C443.232 97.3846 440.456 98.4484 437 98.8687C433.603 99.3015 429.628 99.0489 425.074 98.1112L425.68 91.9143C428.556 92.5066 430.8 92.3711 432.411 91.5078C434.023 90.6445 435.043 89.1564 435.473 87.0434C435.879 85.0511 435.383 83.3451 433.987 81.9253C432.65 80.5178 430.394 79.487 427.219 78.8331C426.08 78.5986 424.87 78.4122 423.587 78.2738C422.317 78.0751 421.244 77.9799 420.368 77.9883L413.199 113.215C414.168 113.666 415.359 114.1 416.773 114.517C418.246 114.946 419.642 115.297 420.96 115.568C423.955 116.185 426.469 116.105 428.5 115.328C430.603 114.503 431.9 112.883 432.391 110.469C432.858 108.175 432.423 106.324 431.087 104.916C429.75 103.509 427.524 102.484 424.409 101.843Z"/>
<path d="M488.377 97.2793L487.852 97.1136C486.683 98.8114 485.333 100.678 483.801 102.714C482.329 104.768 480.79 106.931 479.186 109.202C477.6 111.414 476.043 113.635 474.516 115.866L470.469 123.307C469.771 124.314 469.054 125.38 468.32 126.505C467.643 127.647 466.947 128.752 466.231 129.817C465.515 130.883 464.846 131.899 464.224 132.866C463.603 133.832 463 134.74 462.415 135.589C461.719 135.563 460.934 135.509 460.062 135.428C459.172 135.405 458.173 135.219 457.064 134.869C454.613 134.096 452.883 133.066 451.873 131.779C450.864 130.492 450.625 128.996 451.156 127.291C451.376 126.585 451.692 125.877 452.105 125.168C452.577 124.477 453.114 123.678 453.717 122.77C454.846 120.995 456.336 118.785 458.185 116.139C460.092 113.512 462.131 110.668 464.302 107.607C466.549 104.505 468.778 101.463 470.989 98.4788C473.258 95.5134 475.328 92.7758 477.199 90.266C479.128 87.7746 480.661 85.8363 481.797 84.451C482.779 84.1794 484.209 84.1139 486.088 84.2545C488.043 84.3546 489.896 84.6808 491.647 85.233C494.156 86.0245 496.284 87.1154 498.03 88.5057C499.795 89.8372 500.692 91.3797 500.723 93.1331C500.862 96.5995 500.932 100.593 500.934 105.115C501.013 109.596 501.028 114.283 500.979 119.175C500.93 124.068 500.859 128.824 500.766 133.445C500.75 138.025 500.687 142.138 500.577 145.785C499.715 146.288 498.599 146.582 497.227 146.666C495.836 146.808 494.295 146.613 492.603 146.079C490.21 145.324 488.655 144.349 487.938 143.154C487.22 141.959 486.874 140.397 486.898 138.467L487.172 127.704L488.018 119.737C488.142 116.87 488.209 114.082 488.219 111.373C488.23 108.664 488.253 106.12 488.288 103.742C488.342 101.304 488.372 99.1503 488.377 97.2793ZM464.11 123.045L472.515 114.266L492.998 120.726L491.508 131.687L464.11 123.045Z"/>
</mask>
<path d="M166.877 101.538L172.231 100.246C175.265 99.5136 177.474 98.2203 178.858 96.3659C180.302 94.4971 180.704 92.2144 180.065 89.5178C179.425 86.8212 178.109 84.9847 176.117 84.0084C174.125 83.032 171.552 82.9242 168.399 83.685C167.328 83.9434 166.354 84.2102 165.476 84.4854C164.657 84.7463 163.846 85.0372 163.041 85.358L166.877 101.538ZM175.681 110.817L155.961 115.575L148.331 83.3958C148.061 82.2572 148.175 81.2794 148.673 80.4623C149.171 79.6453 149.913 78.9278 150.899 78.3099C152.691 77.1171 154.92 76.0407 157.586 75.0808C160.251 74.1209 162.684 73.3754 164.885 72.8443C172.916 70.9065 179.396 71.1802 184.325 73.6653C189.299 76.0762 192.489 80.2479 193.896 86.1804C194.805 90.0156 194.679 93.5938 193.516 96.9152C192.414 100.222 190.359 103.094 187.352 105.53C184.33 107.906 180.44 109.668 175.681 110.817ZM154.533 109.553L168.096 106.28L173.659 129.74C173.166 130.049 172.339 130.407 171.177 130.814C170.03 131.281 168.832 131.665 167.583 131.967C164.906 132.613 162.889 132.592 161.531 131.906C160.233 131.206 159.3 129.657 158.731 127.26L154.533 109.553Z" fill="#9296C8"/>
<path d="M226.26 74.5974L225.714 74.6741C225.378 76.7122 224.95 78.9809 224.43 81.4802C223.971 83.9711 223.498 86.5882 223.012 89.3317C222.517 92.0141 222.053 94.6923 221.619 97.3662L221.119 105.835C220.916 107.046 220.72 108.317 220.534 109.65C220.408 110.974 220.247 112.272 220.052 113.544C219.857 114.815 219.683 116.022 219.532 117.163C219.381 118.304 219.221 119.384 219.053 120.403C218.411 120.68 217.679 120.97 216.857 121.272C216.042 121.635 215.059 121.898 213.908 122.06C211.364 122.418 209.362 122.233 207.903 121.505C206.444 120.777 205.593 119.528 205.349 117.758C205.248 117.026 205.234 116.25 205.306 115.431C205.439 114.604 205.585 113.65 205.745 112.57C206.012 110.479 206.42 107.84 206.969 104.652C207.578 101.456 208.214 98.0073 208.877 94.3058C209.592 90.5348 210.315 86.8248 211.047 83.1758C211.839 79.5183 212.548 76.1525 213.174 73.0783C213.861 69.9956 214.424 67.5836 214.863 65.8421C215.635 65.1736 216.9 64.4979 218.659 63.8151C220.469 63.0628 222.283 62.5588 224.101 62.3032C226.706 61.9369 229.093 62.0055 231.262 62.5092C233.423 62.9518 234.889 63.9587 235.662 65.5298C237.259 68.6024 239.018 72.1809 240.94 76.2654C242.914 80.2803 244.918 84.5089 246.951 88.951C248.983 93.3932 250.939 97.7218 252.817 101.937C254.747 106.082 256.437 109.826 257.886 113.169C257.321 113.995 256.436 114.741 255.231 115.408C254.034 116.136 252.558 116.624 250.801 116.871C248.317 117.221 246.497 117.01 245.341 116.239C244.185 115.469 243.208 114.206 242.411 112.452L238.089 102.609L235.471 95.0448C234.365 92.4008 233.242 89.8525 232.101 87.4001C230.96 84.9477 229.901 82.6394 228.923 80.4751C227.937 78.2498 227.049 76.2905 226.26 74.5974ZM215.258 108.339L219.13 96.7831L240.393 93.7926L243.7 104.339L215.258 108.339Z" fill="#9296C8"/>
<path d="M303.284 99.4217C302.622 99.9896 301.714 100.47 300.559 100.863C299.465 101.254 298.185 101.465 296.717 101.494C294.822 101.532 293.227 101.317 291.933 100.85C290.64 100.383 289.799 99.5677 289.409 98.4045C287.219 92.5933 285.353 87.7617 283.812 83.9097C282.332 80.0565 281.167 76.7209 280.318 73.9028L279.86 73.912C279.75 77.7969 279.664 81.3424 279.603 84.5484C279.542 87.7544 279.51 90.8982 279.507 93.9798C279.503 96.9998 279.47 100.082 279.408 103.226C279.345 106.371 279.227 109.825 279.054 113.587C278.385 113.786 277.472 114.02 276.315 114.289C275.219 114.558 274.12 114.703 273.019 114.725C270.696 114.771 268.854 114.407 267.493 113.633C266.194 112.858 265.525 111.485 265.488 109.513C265.462 108.158 265.485 106.155 265.557 103.503C265.689 100.789 265.814 97.7045 265.932 94.2508C266.11 90.7343 266.253 87.0336 266.363 83.1487C266.534 79.2625 266.706 75.438 266.879 71.6751C267.112 67.8493 267.321 64.3322 267.504 61.1237C267.979 60.3747 268.944 59.6158 270.397 58.8473C271.85 58.0171 273.86 57.5763 276.428 57.5251C279.18 57.4701 281.39 57.8882 283.059 58.7794C284.787 59.6077 286.038 61.0311 286.81 63.0495C287.77 65.249 288.797 67.817 289.893 70.7534C290.988 73.6282 292.053 76.5652 293.089 79.5644C294.184 82.5008 295.183 85.1618 296.085 87.5474L296.544 87.5383C298.153 82.0827 299.795 76.7496 301.47 71.5392C303.206 66.3276 304.683 61.9839 305.902 58.5083C306.748 57.9983 307.812 57.6073 309.091 57.3352C310.43 57.0004 311.834 56.8183 313.302 56.789C315.931 56.7365 318.048 57.0948 319.653 57.864C321.319 58.5703 322.319 59.6905 322.654 61.2246C322.92 62.3902 323.2 64.2336 323.493 66.7546C323.847 69.2744 324.208 72.1946 324.577 75.5153C324.945 78.7744 325.316 82.2183 325.691 85.8471C326.065 89.4142 326.407 92.9203 326.717 96.3655C327.087 99.7478 327.389 102.792 327.624 105.5C327.859 108.207 328.023 110.36 328.114 111.961C327.208 112.534 326.237 112.954 325.202 113.221C324.229 113.548 322.979 113.728 321.45 113.758C319.493 113.797 317.805 113.461 316.384 112.75C315.025 112.037 314.264 110.635 314.102 108.543C313.705 103.744 313.374 99.1895 313.108 94.8806C312.841 90.5102 312.613 86.5396 312.423 82.9688C312.293 79.3352 312.142 76.2258 311.97 73.6407L311.512 73.6499C310.767 76.3149 309.7 79.6951 308.309 83.7905C306.979 87.823 305.304 93.0334 303.284 99.4217Z" fill="#9296C8"/>
<path d="M368.184 72.1801L367.636 72.1252C366.832 74.0263 365.886 76.1298 364.796 78.4358C363.767 80.7478 362.695 83.1794 361.581 85.7306C360.473 88.2205 359.396 90.7135 358.349 93.2095L355.883 101.323C355.402 102.451 354.915 103.641 354.421 104.892C353.989 106.149 353.529 107.372 353.042 108.562C352.555 109.752 352.105 110.883 351.691 111.956C351.277 113.03 350.869 114.041 350.467 114.992C349.779 115.109 349 115.217 348.13 115.315C347.254 115.475 346.237 115.497 345.081 115.381C342.525 115.125 340.624 114.47 339.376 113.416C338.129 112.362 337.593 110.946 337.77 109.168C337.843 108.432 338.011 107.674 338.273 106.896C338.595 106.123 338.961 105.231 339.369 104.219C340.117 102.25 341.131 99.7818 342.41 96.8135C343.749 93.8514 345.173 90.6501 346.683 87.2097C348.26 83.714 349.831 80.2796 351.395 76.9066C353.021 73.5397 354.497 70.4364 355.824 67.597C357.212 64.7636 358.323 62.5526 359.157 60.9642C360.064 60.4978 361.452 60.1414 363.32 59.8952C365.255 59.5938 367.136 59.5346 368.961 59.7177C371.578 59.98 373.882 60.6134 375.872 61.618C377.868 62.5612 379.057 63.888 379.44 65.5985C380.273 68.9642 381.146 72.8602 382.058 77.2866C383.037 81.6578 383.995 86.2436 384.931 91.044C385.868 95.8444 386.756 100.516 387.595 105.059C388.501 109.547 389.267 113.587 389.893 117.18C389.151 117.848 388.116 118.364 386.789 118.726C385.456 119.15 383.908 119.273 382.143 119.096C379.648 118.846 377.928 118.209 376.985 117.186C376.042 116.163 375.388 114.704 375.023 112.809L373.126 102.215L372.352 94.2417C371.896 91.4092 371.4 88.6657 370.865 86.0111C370.33 83.3565 369.841 80.8612 369.397 78.5254C368.959 76.1283 368.554 74.0132 368.184 72.1801ZM349.602 102.365L356.067 92.0518L377.427 94.1932L378.174 105.229L349.602 102.365Z" fill="#9296C8"/>
<path d="M433.139 93.4505L431.149 103.231L411.108 99.1033L413.098 89.3231L433.139 93.4505ZM424.409 101.843L427.017 94.5484C431.99 95.5725 436.001 97.0276 439.05 98.9137C442.1 100.8 444.212 102.996 445.388 105.503C446.623 108.021 446.927 110.82 446.301 113.899C445.109 119.755 442.067 123.658 437.176 125.607C432.285 127.556 425.855 127.71 417.886 126.069C416.448 125.773 414.813 125.373 412.98 124.87C411.207 124.379 409.393 123.785 407.537 123.088C405.741 122.404 404.12 121.63 402.673 120.766C399.791 118.977 398.644 116.634 399.234 113.736L408.044 70.4495C408.277 69.3024 408.791 68.4647 409.585 67.9364C410.379 67.408 411.353 67.0738 412.505 66.9336C414.689 66.6287 417.25 66.6214 420.188 66.9119C423.185 67.2146 426.211 67.6806 429.267 68.3099C436.696 69.84 442.154 72.3163 445.64 75.739C449.186 79.174 450.424 83.5177 449.355 88.77C448.765 91.6678 447.423 93.9703 445.327 95.6775C443.232 97.3846 440.456 98.4484 437 98.8687C433.603 99.3015 429.628 99.0489 425.074 98.1112L425.68 91.9143C428.556 92.5066 430.8 92.3711 432.411 91.5078C434.023 90.6445 435.043 89.1564 435.473 87.0434C435.879 85.0511 435.383 83.3451 433.987 81.9253C432.65 80.5178 430.394 79.487 427.219 78.8331C426.08 78.5986 424.87 78.4122 423.587 78.2738C422.317 78.0751 421.244 77.9799 420.368 77.9883L413.199 113.215C414.168 113.666 415.359 114.1 416.773 114.517C418.246 114.946 419.642 115.297 420.96 115.568C423.955 116.185 426.469 116.105 428.5 115.328C430.603 114.503 431.9 112.883 432.391 110.469C432.858 108.175 432.423 106.324 431.087 104.916C429.75 103.509 427.524 102.484 424.409 101.843Z" fill="#9296C8"/>
<path d="M488.377 97.2793L487.852 97.1136C486.683 98.8114 485.333 100.678 483.801 102.714C482.329 104.768 480.79 106.931 479.186 109.202C477.6 111.414 476.043 113.635 474.516 115.866L470.469 123.307C469.771 124.314 469.054 125.38 468.32 126.505C467.643 127.647 466.947 128.752 466.231 129.817C465.515 130.883 464.846 131.899 464.224 132.866C463.603 133.832 463 134.74 462.415 135.589C461.719 135.563 460.934 135.509 460.062 135.428C459.172 135.405 458.173 135.219 457.064 134.869C454.613 134.096 452.883 133.066 451.873 131.779C450.864 130.492 450.625 128.996 451.156 127.291C451.376 126.585 451.692 125.877 452.105 125.168C452.577 124.477 453.114 123.678 453.717 122.77C454.846 120.995 456.336 118.785 458.185 116.139C460.092 113.512 462.131 110.668 464.302 107.607C466.549 104.505 468.778 101.463 470.989 98.4788C473.258 95.5134 475.328 92.7758 477.199 90.266C479.128 87.7746 480.661 85.8363 481.797 84.451C482.779 84.1794 484.209 84.1139 486.088 84.2545C488.043 84.3546 489.896 84.6808 491.647 85.233C494.156 86.0245 496.284 87.1154 498.03 88.5057C499.795 89.8372 500.692 91.3797 500.723 93.1331C500.862 96.5995 500.932 100.593 500.934 105.115C501.013 109.596 501.028 114.283 500.979 119.175C500.93 124.068 500.859 128.824 500.766 133.445C500.75 138.025 500.687 142.138 500.577 145.785C499.715 146.288 498.599 146.582 497.227 146.666C495.836 146.808 494.295 146.613 492.603 146.079C490.21 145.324 488.655 144.349 487.938 143.154C487.22 141.959 486.874 140.397 486.898 138.467L487.172 127.704L488.018 119.737C488.142 116.87 488.209 114.082 488.219 111.373C488.23 108.664 488.253 106.12 488.288 103.742C488.342 101.304 488.372 99.1503 488.377 97.2793ZM464.11 123.045L472.515 114.266L492.998 120.726L491.508 131.687L464.11 123.045Z" fill="#9296C8"/>
<path d="M166.877 101.538L172.231 100.246C175.265 99.5136 177.474 98.2203 178.858 96.3659C180.302 94.4971 180.704 92.2144 180.065 89.5178C179.425 86.8212 178.109 84.9847 176.117 84.0084C174.125 83.032 171.552 82.9242 168.399 83.685C167.328 83.9434 166.354 84.2102 165.476 84.4854C164.657 84.7463 163.846 85.0372 163.041 85.358L166.877 101.538ZM175.681 110.817L155.961 115.575L148.331 83.3958C148.061 82.2572 148.175 81.2794 148.673 80.4623C149.171 79.6453 149.913 78.9278 150.899 78.3099C152.691 77.1171 154.92 76.0407 157.586 75.0808C160.251 74.1209 162.684 73.3754 164.885 72.8443C172.916 70.9065 179.396 71.1802 184.325 73.6653C189.299 76.0762 192.489 80.2479 193.896 86.1804C194.805 90.0156 194.679 93.5938 193.516 96.9152C192.414 100.222 190.359 103.094 187.352 105.53C184.33 107.906 180.44 109.668 175.681 110.817ZM154.533 109.553L168.096 106.28L173.659 129.74C173.166 130.049 172.339 130.407 171.177 130.814C170.03 131.281 168.832 131.665 167.583 131.967C164.906 132.613 162.889 132.592 161.531 131.906C160.233 131.206 159.3 129.657 158.731 127.26L154.533 109.553Z" stroke="#F0F0F0" stroke-width="26" mask="url(#path-39-outside-1_2024_14989)"/>
<path d="M226.26 74.5974L225.714 74.6741C225.378 76.7122 224.95 78.9809 224.43 81.4802C223.971 83.9711 223.498 86.5882 223.012 89.3317C222.517 92.0141 222.053 94.6923 221.619 97.3662L221.119 105.835C220.916 107.046 220.72 108.317 220.534 109.65C220.408 110.974 220.247 112.272 220.052 113.544C219.857 114.815 219.683 116.022 219.532 117.163C219.381 118.304 219.221 119.384 219.053 120.403C218.411 120.68 217.679 120.97 216.857 121.272C216.042 121.635 215.059 121.898 213.908 122.06C211.364 122.418 209.362 122.233 207.903 121.505C206.444 120.777 205.593 119.528 205.349 117.758C205.248 117.026 205.234 116.25 205.306 115.431C205.439 114.604 205.585 113.65 205.745 112.57C206.012 110.479 206.42 107.84 206.969 104.652C207.578 101.456 208.214 98.0073 208.877 94.3058C209.592 90.5348 210.315 86.8248 211.047 83.1758C211.839 79.5183 212.548 76.1525 213.174 73.0783C213.861 69.9956 214.424 67.5836 214.863 65.8421C215.635 65.1736 216.9 64.4979 218.659 63.8151C220.469 63.0628 222.283 62.5588 224.101 62.3032C226.706 61.9369 229.093 62.0055 231.262 62.5092C233.423 62.9518 234.889 63.9587 235.662 65.5298C237.259 68.6024 239.018 72.1809 240.94 76.2654C242.914 80.2803 244.918 84.5089 246.951 88.951C248.983 93.3932 250.939 97.7218 252.817 101.937C254.747 106.082 256.437 109.826 257.886 113.169C257.321 113.995 256.436 114.741 255.231 115.408C254.034 116.136 252.558 116.624 250.801 116.871C248.317 117.221 246.497 117.01 245.341 116.239C244.185 115.469 243.208 114.206 242.411 112.452L238.089 102.609L235.471 95.0448C234.365 92.4008 233.242 89.8525 232.101 87.4001C230.96 84.9477 229.901 82.6394 228.923 80.4751C227.937 78.2498 227.049 76.2905 226.26 74.5974ZM215.258 108.339L219.13 96.7831L240.393 93.7926L243.7 104.339L215.258 108.339Z" stroke="#F0F0F0" stroke-width="26" mask="url(#path-39-outside-1_2024_14989)"/>
<path d="M303.284 99.4217C302.622 99.9896 301.714 100.47 300.559 100.863C299.465 101.254 298.185 101.465 296.717 101.494C294.822 101.532 293.227 101.317 291.933 100.85C290.64 100.383 289.799 99.5677 289.409 98.4045C287.219 92.5933 285.353 87.7617 283.812 83.9097C282.332 80.0565 281.167 76.7209 280.318 73.9028L279.86 73.912C279.75 77.7969 279.664 81.3424 279.603 84.5484C279.542 87.7544 279.51 90.8982 279.507 93.9798C279.503 96.9998 279.47 100.082 279.408 103.226C279.345 106.371 279.227 109.825 279.054 113.587C278.385 113.786 277.472 114.02 276.315 114.289C275.219 114.558 274.12 114.703 273.019 114.725C270.696 114.771 268.854 114.407 267.493 113.633C266.194 112.858 265.525 111.485 265.488 109.513C265.462 108.158 265.485 106.155 265.557 103.503C265.689 100.789 265.814 97.7045 265.932 94.2508C266.11 90.7343 266.253 87.0336 266.363 83.1487C266.534 79.2625 266.706 75.438 266.879 71.6751C267.112 67.8493 267.321 64.3322 267.504 61.1237C267.979 60.3747 268.944 59.6158 270.397 58.8473C271.85 58.0171 273.86 57.5763 276.428 57.5251C279.18 57.4701 281.39 57.8882 283.059 58.7794C284.787 59.6077 286.038 61.0311 286.81 63.0495C287.77 65.249 288.797 67.817 289.893 70.7534C290.988 73.6282 292.053 76.5652 293.089 79.5644C294.184 82.5008 295.183 85.1618 296.085 87.5474L296.544 87.5383C298.153 82.0827 299.795 76.7496 301.47 71.5392C303.206 66.3276 304.683 61.9839 305.902 58.5083C306.748 57.9983 307.812 57.6073 309.091 57.3352C310.43 57.0004 311.834 56.8183 313.302 56.789C315.931 56.7365 318.048 57.0948 319.653 57.864C321.319 58.5703 322.319 59.6905 322.654 61.2246C322.92 62.3902 323.2 64.2336 323.493 66.7546C323.847 69.2744 324.208 72.1946 324.577 75.5153C324.945 78.7744 325.316 82.2183 325.691 85.8471C326.065 89.4142 326.407 92.9203 326.717 96.3655C327.087 99.7478 327.389 102.792 327.624 105.5C327.859 108.207 328.023 110.36 328.114 111.961C327.208 112.534 326.237 112.954 325.202 113.221C324.229 113.548 322.979 113.728 321.45 113.758C319.493 113.797 317.805 113.461 316.384 112.75C315.025 112.037 314.264 110.635 314.102 108.543C313.705 103.744 313.374 99.1895 313.108 94.8806C312.841 90.5102 312.613 86.5396 312.423 82.9688C312.293 79.3352 312.142 76.2258 311.97 73.6407L311.512 73.6499C310.767 76.3149 309.7 79.6951 308.309 83.7905C306.979 87.823 305.304 93.0334 303.284 99.4217Z" stroke="#F0F0F0" stroke-width="26" mask="url(#path-39-outside-1_2024_14989)"/>
<path d="M368.184 72.1801L367.636 72.1252C366.832 74.0263 365.886 76.1298 364.796 78.4358C363.767 80.7478 362.695 83.1794 361.581 85.7306C360.473 88.2205 359.396 90.7135 358.349 93.2095L355.883 101.323C355.402 102.451 354.915 103.641 354.421 104.892C353.989 106.149 353.529 107.372 353.042 108.562C352.555 109.752 352.105 110.883 351.691 111.956C351.277 113.03 350.869 114.041 350.467 114.992C349.779 115.109 349 115.217 348.13 115.315C347.254 115.475 346.237 115.497 345.081 115.381C342.525 115.125 340.624 114.47 339.376 113.416C338.129 112.362 337.593 110.946 337.77 109.168C337.843 108.432 338.011 107.674 338.273 106.896C338.595 106.123 338.961 105.231 339.369 104.219C340.117 102.25 341.131 99.7818 342.41 96.8135C343.749 93.8514 345.173 90.6501 346.683 87.2097C348.26 83.714 349.831 80.2796 351.395 76.9066C353.021 73.5397 354.497 70.4364 355.824 67.597C357.212 64.7636 358.323 62.5526 359.157 60.9642C360.064 60.4978 361.452 60.1414 363.32 59.8952C365.255 59.5938 367.136 59.5346 368.961 59.7177C371.578 59.98 373.882 60.6134 375.872 61.618C377.868 62.5612 379.057 63.888 379.44 65.5985C380.273 68.9642 381.146 72.8602 382.058 77.2866C383.037 81.6578 383.995 86.2436 384.931 91.044C385.868 95.8444 386.756 100.516 387.595 105.059C388.501 109.547 389.267 113.587 389.893 117.18C389.151 117.848 388.116 118.364 386.789 118.726C385.456 119.15 383.908 119.273 382.143 119.096C379.648 118.846 377.928 118.209 376.985 117.186C376.042 116.163 375.388 114.704 375.023 112.809L373.126 102.215L372.352 94.2417C371.896 91.4092 371.4 88.6657 370.865 86.0111C370.33 83.3565 369.841 80.8612 369.397 78.5254C368.959 76.1283 368.554 74.0132 368.184 72.1801ZM349.602 102.365L356.067 92.0518L377.427 94.1932L378.174 105.229L349.602 102.365Z" stroke="#F0F0F0" stroke-width="26" mask="url(#path-39-outside-1_2024_14989)"/>
<path d="M433.139 93.4505L431.149 103.231L411.108 99.1033L413.098 89.3231L433.139 93.4505ZM424.409 101.843L427.017 94.5484C431.99 95.5725 436.001 97.0276 439.05 98.9137C442.1 100.8 444.212 102.996 445.388 105.503C446.623 108.021 446.927 110.82 446.301 113.899C445.109 119.755 442.067 123.658 437.176 125.607C432.285 127.556 425.855 127.71 417.886 126.069C416.448 125.773 414.813 125.373 412.98 124.87C411.207 124.379 409.393 123.785 407.537 123.088C405.741 122.404 404.12 121.63 402.673 120.766C399.791 118.977 398.644 116.634 399.234 113.736L408.044 70.4495C408.277 69.3024 408.791 68.4647 409.585 67.9364C410.379 67.408 411.353 67.0738 412.505 66.9336C414.689 66.6287 417.25 66.6214 420.188 66.9119C423.185 67.2146 426.211 67.6806 429.267 68.3099C436.696 69.84 442.154 72.3163 445.64 75.739C449.186 79.174 450.424 83.5177 449.355 88.77C448.765 91.6678 447.423 93.9703 445.327 95.6775C443.232 97.3846 440.456 98.4484 437 98.8687C433.603 99.3015 429.628 99.0489 425.074 98.1112L425.68 91.9143C428.556 92.5066 430.8 92.3711 432.411 91.5078C434.023 90.6445 435.043 89.1564 435.473 87.0434C435.879 85.0511 435.383 83.3451 433.987 81.9253C432.65 80.5178 430.394 79.487 427.219 78.8331C426.08 78.5986 424.87 78.4122 423.587 78.2738C422.317 78.0751 421.244 77.9799 420.368 77.9883L413.199 113.215C414.168 113.666 415.359 114.1 416.773 114.517C418.246 114.946 419.642 115.297 420.96 115.568C423.955 116.185 426.469 116.105 428.5 115.328C430.603 114.503 431.9 112.883 432.391 110.469C432.858 108.175 432.423 106.324 431.087 104.916C429.75 103.509 427.524 102.484 424.409 101.843Z" stroke="#F0F0F0" stroke-width="26" mask="url(#path-39-outside-1_2024_14989)"/>
<path d="M488.377 97.2793L487.852 97.1136C486.683 98.8114 485.333 100.678 483.801 102.714C482.329 104.768 480.79 106.931 479.186 109.202C477.6 111.414 476.043 113.635 474.516 115.866L470.469 123.307C469.771 124.314 469.054 125.38 468.32 126.505C467.643 127.647 466.947 128.752 466.231 129.817C465.515 130.883 464.846 131.899 464.224 132.866C463.603 133.832 463 134.74 462.415 135.589C461.719 135.563 460.934 135.509 460.062 135.428C459.172 135.405 458.173 135.219 457.064 134.869C454.613 134.096 452.883 133.066 451.873 131.779C450.864 130.492 450.625 128.996 451.156 127.291C451.376 126.585 451.692 125.877 452.105 125.168C452.577 124.477 453.114 123.678 453.717 122.77C454.846 120.995 456.336 118.785 458.185 116.139C460.092 113.512 462.131 110.668 464.302 107.607C466.549 104.505 468.778 101.463 470.989 98.4788C473.258 95.5134 475.328 92.7758 477.199 90.266C479.128 87.7746 480.661 85.8363 481.797 84.451C482.779 84.1794 484.209 84.1139 486.088 84.2545C488.043 84.3546 489.896 84.6808 491.647 85.233C494.156 86.0245 496.284 87.1154 498.03 88.5057C499.795 89.8372 500.692 91.3797 500.723 93.1331C500.862 96.5995 500.932 100.593 500.934 105.115C501.013 109.596 501.028 114.283 500.979 119.175C500.93 124.068 500.859 128.824 500.766 133.445C500.75 138.025 500.687 142.138 500.577 145.785C499.715 146.288 498.599 146.582 497.227 146.666C495.836 146.808 494.295 146.613 492.603 146.079C490.21 145.324 488.655 144.349 487.938 143.154C487.22 141.959 486.874 140.397 486.898 138.467L487.172 127.704L488.018 119.737C488.142 116.87 488.209 114.082 488.219 111.373C488.23 108.664 488.253 106.12 488.288 103.742C488.342 101.304 488.372 99.1503 488.377 97.2793ZM464.11 123.045L472.515 114.266L492.998 120.726L491.508 131.687L464.11 123.045Z" stroke="#F0F0F0" stroke-width="26" mask="url(#path-39-outside-1_2024_14989)"/>
</svg>
